<svg width="496" height="496" viewBox="0 0 496 496" fill="none" xmlns="http://www.w3.org/2000/svg">
<rect width="496" height="496" fill="white"/>
<circle cx="248" cy="248" r="248" fill="#F26D21"/>
<path d="M116.404 310.446C121.804 325.146 143.704 361.446 193.204 361.446C241.804 361.446 268.504 332.946 268.504 292.746C268.504 229.446 182.404 230.646 182.404 207.246C182.404 201.546 186.604 197.646 193.804 197.646C208.204 197.646 213.304 208.146 217.504 216.846L267.004 194.646C261.304 178.146 243.604 143.646 195.304 143.646C151.804 143.646 122.704 168.546 122.704 208.446C122.704 275.346 208.204 275.946 208.204 297.246C208.204 302.646 204.304 306.546 195.004 306.546C184.204 306.546 172.204 296.946 166.204 285.846L116.404 310.446Z" fill="white"/>
<g style="mix-blend-mode:screen">
<path d="M391.463 193.446V147.546H249.563V193.446H294.863V357.546H346.163V193.446H391.463Z" fill="#F26D21"/>
</g>
</svg>
